# xmcd
#
# Track frame offsets: 
#        150
#        3164
#        16966
#        32227
#        51013
#        69935
#        92889
#        105982
#        121858
#        133224
#        149302
#
# Disc length: 2346 seconds
#
# Revision: 3
# Processed by: cddbd v1.5.2PL0 Copyright (c) Steve Scherf et al.
# Submitted via: ExactAudioCopy v1.0b3
#
DISCID=8909280b
DTITLE=Sverige - livet.com
DYEAR=2001
DGENRE=Folk/Rock
TTITLE0=Gustaves Farm
TTITLE1=LaLaLa-I Ett Lallande Land
TTITLE2=Medan Tågen Går Förbi
TTITLE3=Mannen Från Andra Sidan
TTITLE4=Vi Säger Samma Saker Men På Olika Sätt
TTITLE5=livet.com
TTITLE6=Rödvinscowboys
TTITLE7=Lång Väg Kvar Att Gå
TTITLE8=Sovit I En Allt För Skön Säng
TTITLE9=Himmelrikets Portar Är Stängda För Mig
TTITLE10=Kungen Bland Losers-Losers Bland Kungar
EXTD=
EXTT0=
EXTT1=
EXTT2=
EXTT3=
EXTT4=
EXTT5=
EXTT6=
EXTT7=
EXTT8=
EXTT9=
EXTT10=
PLAYORDER=
